<svg width="25" height="25" viewBox="0 0 25 25" fill="none" xmlns="http://www.w3.org/2000/svg">
<path d="M21.3344 16.132L19.6156 14.4133C19.1033 13.905 18.4117 13.6185 17.6901 13.6154C16.9684 13.6123 16.2745 13.893 15.7578 14.3968C15.4821 14.6741 15.1184 14.8466 14.7293 14.8847C14.3402 14.9227 13.95 14.824 13.6258 14.6054C12.3463 13.7515 11.247 12.6544 10.3906 11.3765C10.1759 11.0487 10.0807 10.6569 10.1212 10.2672C10.1616 9.87739 10.3351 9.51346 10.6125 9.23669C11.1118 8.71956 11.3888 8.02752 11.3843 7.30871C11.3798 6.58989 11.094 5.9014 10.5883 5.39059L8.86953 3.67184C8.35496 3.15904 7.65811 2.87109 6.93164 2.87109C6.20518 2.87109 5.50832 3.15904 4.99375 3.67184L4.49922 4.16716C1.9211 6.74528 2.11406 12.1656 7.47813 17.5265C10.7125 20.7617 13.968 22.1164 16.6078 22.1164C17.3849 22.1423 18.1594 22.0132 18.8861 21.7368C19.6128 21.4603 20.2772 21.042 20.8406 20.5062L21.3359 20.0109C21.8497 19.4961 22.1381 18.7984 22.1378 18.0711C22.1375 17.3438 21.8485 16.6464 21.3344 16.132ZM20.2297 18.9062L19.7344 19.4015C17.7031 21.4328 13.2195 21.0617 8.58125 16.4226C3.94297 11.7836 3.5711 7.29684 5.60235 5.26559L6.09375 4.77106C6.31501 4.55061 6.61462 4.42682 6.92695 4.42682C7.23929 4.42682 7.5389 4.55061 7.76016 4.77106L9.47891 6.48981C9.69614 6.70814 9.81945 7.00272 9.82252 7.31069C9.82558 7.61867 9.70816 7.91564 9.49531 8.13825C8.96741 8.66952 8.6381 9.36608 8.56258 10.1112C8.48706 10.8564 8.6699 11.6048 9.08047 12.2312C10.0536 13.6874 11.3049 14.9369 12.7625 15.9078C13.387 16.3184 14.1335 16.5023 14.8773 16.4288C15.6211 16.3553 16.3172 16.0288 16.8492 15.5039C17.0714 15.2885 17.3692 15.1689 17.6786 15.1708C17.9881 15.1727 18.2844 15.296 18.5039 15.514L20.2227 17.2328C20.3334 17.342 20.4215 17.472 20.4819 17.6153C20.5422 17.7586 20.5736 17.9125 20.5743 18.068C20.5749 18.2236 20.5448 18.3777 20.4857 18.5215C20.4265 18.6654 20.3395 18.7961 20.2297 18.9062Z" fill="black"/>
</svg>
